<?xml version="1.0" encoding="utf-8"?>
<!-- Generator: Adobe Illustrator 27.2.0, SVG Export Plug-In . SVG Version: 6.00 Build 0)  -->
<svg version="1.1" id="Layer_1" xmlns="http://www.w3.org/2000/svg" xmlns:xlink="http://www.w3.org/1999/xlink" x="0px" y="0px"
	 viewBox="0 0 512 512" style="enable-background:new 0 0 512 512;" xml:space="preserve">
<style type="text/css">
	.st0{fill:#001117;}
	.st1{fill:#73FFE6;}
	.st2{fill:#00735C;stroke:#73CCFF;stroke-miterlimit:10;}
	.st3{font-family:'MinervaModern-Regular';}
	.st4{font-size:245.76px;}
	.st5{letter-spacing:9;}
	.st6{opacity:0.6;fill:#001117;stroke:#73CCFF;stroke-miterlimit:10;}
</style>
<g>
	<polygon class="st0" points="0.5,0.5 511.5,0.5 511.5,511.45 0.5,511.5 	"/>
	<path class="st1" d="M511,1v509.95L1,511V1H511 M512,0H0v512l512-0.05V0L512,0z"/>
</g>
<text transform="matrix(1 0 0 1 113.4834 384.7861)"><tspan x="0" y="0" class="st2 st3 st4 st5">F</tspan><tspan x="125.33" y="0" class="st2 st3 st4">D</tspan></text>
<g>
	<line class="st6" x1="243.2" y1="89.6" x2="243.2" y2="125.44"/>
	<line class="st6" x1="207.36" y1="125.44" x2="243.2" y2="125.44"/>
	<line class="st6" x1="279.04" y1="125.44" x2="243.2" y2="125.44"/>
	<line class="st6" x1="207.36" y1="151.04" x2="207.36" y2="125.44"/>
	<line class="st6" x1="279.04" y1="151.04" x2="279.04" y2="125.44"/>
	<line class="st6" x1="227.84" y1="151.04" x2="207.36" y2="151.04"/>
	<line class="st6" x1="181.76" y1="151.04" x2="207.36" y2="151.04"/>
	<line class="st6" x1="181.76" y1="176.64" x2="181.76" y2="151.04"/>
	<line class="st6" x1="227.84" y1="176.64" x2="227.84" y2="151.04"/>
	<line class="st6" x1="304.64" y1="151.04" x2="279.04" y2="151.04"/>
	<line class="st6" x1="253.44" y1="151.04" x2="279.04" y2="151.04"/>
	<line class="st6" x1="253.44" y1="176.64" x2="253.44" y2="151.04"/>
	<line class="st6" x1="304.64" y1="176.64" x2="304.64" y2="151.04"/>
	<ellipse class="st6" cx="243.09" cy="84.94" rx="5.01" ry="5.58"/>
	<ellipse class="st6" cx="278.93" cy="125.9" rx="5.01" ry="5.58"/>
	<ellipse class="st6" cx="253.33" cy="151.5" rx="5.01" ry="5.58"/>
	<ellipse class="st6" cx="304.53" cy="151.5" rx="5.01" ry="5.58"/>
	<ellipse class="st6" cx="207.25" cy="125.9" rx="5.01" ry="5.58"/>
	<ellipse class="st6" cx="227.73" cy="151.5" rx="5.01" ry="5.58"/>
	<ellipse class="st6" cx="181.65" cy="151.5" rx="5.01" ry="5.58"/>
</g>
</svg>
